{"title":"Paul.2011.EXTENDED.720p.BRRip.x264.Feel-Free","uid":6456376,"size":2783965754,"categoryP":"video","categoryS":"hd___movies","magnet":"?xt=urn:btih:14b4076aaec7cf2091badde723d5fdaf3268cd5d&amp;dn=Paul.2011.EXTENDED.720p.BRRip.x264.Feel-Free&amp;tr=udp%3A%2F%2Ftracker.openbittorrent.com%3A80&amp;tr=udp%3A%2F%2Fopen.demonii.com%3A1337&amp;tr=udp%3A%2F%2Ftracker.coppersurfer.tk%3A6969&amp;tr=udp%3A%2F%2Fexodus.desync.com%3A6969","seeders":0,"leechers":1,"uploader":".BONE.","files":9,"time":1307604503,"description":"Genre:Comedy | Sci-Fi\nLanguage:English\nIMDb:http://www.imdb.com/title/tt1092026/\nSource:EXTENDED.1080p.BluRay.X264-AVCHD Thanks!\n\nFormat : MPEG-4\nFormat profile : Base Media\nCodec ID : isom\nFile size : 2.59 GiB\nDuration : 1h 49mn\nOverall bit rate : 3 390 Kbps\n\nVideo\nID : 1\nFormat : AVC\nFormat/Info : Advanced Video Codec\nFormat profile : &lt;a class=&quot;__cf_email__&quot; href=&quot;/cdn-cgi/l/email-protection&quot; data-cfemail=&quot;2e664749466e621a001f&quot;&gt;[email&amp;#160;protected]&lt;/a&gt;&lt;script cf-hash='f9e31' type=&quot;text/javascript&quot;&gt;\n/* &lt;![CDATA[ */!function(){try{var t=&quot;currentScript&quot;in document?document.currentScript:function(){for(var t=document.getElementsByTagName(&quot;script&quot;),e=t.length;e--;)if(t[e].getAttribute(&quot;cf-hash&quot;))return t[e]}();if(t&amp;&amp;t.previousSibling){var e,r,n,i,c=t.previousSibling,a=c.getAttribute(&quot;data-cfemail&quot;);if(a){for(e=&quot;&quot;,r=parseInt(a.substr(0,2),16),n=2;a.length-n;n+=2)i=parseInt(a.substr(n,2),16)^r,e+=String.fromCharCode(i);e=document.createTextNode(e),c.parentNode.replaceChild(e,c)}}}catch(u){}}();/* ]]&gt; */&lt;/script&gt;\nFormat settings, CABAC : Yes\nFormat settings, ReFrames : 3 frames\nCodec ID : avc1\nCodec ID/Info : Advanced Video Coding\nDuration : 1h 49mn\nBit rate mode : Variable\nBit rate : 3 000 Kbps\nMaximum bit rate : 14.5 Mbps\nWidth : 1 280 pixels\nHeight : 544 pixels\nDisplay aspect ratio : 2.35:1\nFrame rate mode : Constant\nFrame rate : 23.976 fps\nColor space : YUV\nChroma subsampling : 4:2:0\nBit depth : 8 bits\nScan type : Progressive\nBits/(Pixel*Frame) : 0.180\nStream size : 2.25 GiB (87%)\nWriting library : x264\n\nAudio\nID : 2\nFormat : AAC\nFormat/Info : Advanced Audio Codec\nFormat version : Version 4\nFormat profile : LC\nFormat settings, SBR : No\nCodec ID : 40\nDuration : 1h 49mn\nBit rate mode : Variable\nBit rate : 444 Kbps\nMaximum bit rate : 529 Kbps\nChannel(s) : 6 channels\nChannel positions : Front: L C R, Side: L R, LFE\nSampling rate : 48.0 KHz\nStream size : 347 MiB (13%)\n\n\nPlot:\nTwo British comic-book geeks traveling across the U.S. encounter an alien outside Area 51\n &lt;a href=&quot;\nhttp://leetleech.org/images/19938990283305226479.png&quot; rel=&quot;nofollow&quot; target=&quot;_NEW&quot;&gt;\nhttp://leetleech.org/images/19938990283305226479.png&lt;/a&gt;\n &lt;a href=&quot;\nhttp://leetleech.org/images/83858665050098752755.png&quot; rel=&quot;nofollow&quot; target=&quot;_NEW&quot;&gt;\nhttp://leetleech.org/images/83858665050098752755.png&lt;/a&gt;\n &lt;a href=&quot;\nhttp://leetleech.org/images/85614486905023120279.png&quot; rel=&quot;nofollow&quot; target=&quot;_NEW&quot;&gt;\nhttp://leetleech.org/images/85614486905023120279.png&lt;/a&gt;\n &lt;a href=&quot;\nhttp://leetleech.org/images/40161094226635097856.png&quot; rel=&quot;nofollow&quot; target=&quot;_NEW&quot;&gt;\nhttp://leetleech.org/images/40161094226635097856.png&lt;/a&gt;\n &lt;a href=&quot;\nhttp://leetleech.org/images/53729369377311629668.png&quot; rel=&quot;nofollow&quot; target=&quot;_NEW&quot;&gt;\nhttp://leetleech.org/images/53729369377311629668.png&lt;/a&gt;","torrent":{"xt":"urn:btih:14b4076aaec7cf2091badde723d5fdaf3268cd5d","amp;dn":"Paul.2011.EXTENDED.720p.BRRip.x264.Feel-Free","amp;tr":["udp%3A%2F%2Ftracker.openbittorrent.com%3A80","udp%3A%2F%2Fopen.demonii.com%3A1337","udp%3A%2F%2Ftracker.coppersurfer.tk%3A6969","udp%3A%2F%2Fexodus.desync.com%3A6969"],"infoHash":"14b4076aaec7cf2091badde723d5fdaf3268cd5d","infoHashBuffer":{"type":"Buffer","data":[20,180,7,106,174,199,207,32,145,186,221,231,35,213,253,175,50,104,205,93]},"announce":[],"urlList":[]}}